<svg width="230" height="19" viewBox="0 0 230 19" fill="none" xmlns="http://www.w3.org/2000/svg">
<path d="M0.421387 0.722181H26.7974C27.5814 0.722181 28.2454 0.890181 28.7894 1.22618C29.3494 1.56218 29.7894 1.99418 30.1094 2.52218C30.4294 3.03418 30.6294 3.61018 30.7094 4.25018C30.7894 4.87418 30.7574 5.49018 30.6134 6.09818C30.4694 6.69018 30.2054 7.23418 29.8214 7.73018C29.4534 8.22618 28.9654 8.59418 28.3574 8.83418V9.24218C29.0934 9.41818 29.6934 9.74618 30.1574 10.2262C30.6374 10.7062 30.9814 11.2502 31.1894 11.8582C31.3974 12.4662 31.4774 13.1062 31.4294 13.7782C31.3814 14.4502 31.1974 15.0662 30.8774 15.6262C30.5734 16.1702 30.1414 16.6262 29.5814 16.9942C29.0214 17.3462 28.3334 17.5222 27.5174 17.5222H0.421387V0.722181ZM23.9894 6.72218C24.2134 6.72218 24.3814 6.65818 24.4934 6.53018C24.6054 6.40218 24.6614 6.26618 24.6614 6.12218C24.6614 5.97818 24.6054 5.84218 24.4934 5.71418C24.3814 5.58618 24.2134 5.52218 23.9894 5.52218H7.62139V6.72218H23.9894ZM7.62139 11.5222V12.7222H24.5894C24.8134 12.7222 24.9814 12.6582 25.0934 12.5302C25.2054 12.4022 25.2614 12.2662 25.2614 12.1222C25.2614 11.9782 25.2054 11.8422 25.0934 11.7142C24.9814 11.5862 24.8134 11.5222 24.5894 11.5222H7.62139Z" fill="#222222"/>
<path d="M48.944 18.2422C47.776 18.2582 46.5599 18.1862 45.2959 18.0262C44.0319 17.8822 42.792 17.6502 41.576 17.3302C40.376 16.9942 39.232 16.5782 38.144 16.0822C37.072 15.5862 36.128 15.0022 35.312 14.3302C34.496 13.6422 33.848 12.8662 33.368 12.0022C32.904 11.1382 32.6719 10.1782 32.6719 9.12218C32.6719 8.06618 32.904 7.10618 33.368 6.24218C33.832 5.36218 34.4719 4.58618 35.2879 3.91418C36.1039 3.22618 37.0479 2.63418 38.1199 2.13818C39.2079 1.64218 40.3519 1.23418 41.5519 0.914181C42.7679 0.594182 44.0079 0.362182 45.2719 0.218182C46.5359 0.058182 47.76 -0.013818 48.944 0.00218177C50.128 -0.013818 51.352 0.058182 52.616 0.218182C53.896 0.362182 55.1359 0.594182 56.3359 0.914181C57.5519 1.23418 58.6959 1.64218 59.7679 2.13818C60.8559 2.63418 61.808 3.22618 62.624 3.91418C63.44 4.58618 64.08 5.36218 64.544 6.24218C65.024 7.10618 65.264 8.06618 65.264 9.12218C65.264 10.1782 65.024 11.1382 64.544 12.0022C64.08 12.8662 63.4319 13.6422 62.5999 14.3302C61.7839 15.0022 60.8319 15.5862 59.7439 16.0822C58.6719 16.5782 57.528 16.9942 56.312 17.3302C55.112 17.6502 53.872 17.8822 52.5919 18.0262C51.3279 18.1862 50.112 18.2582 48.944 18.2422ZM41.1919 9.12218C41.1919 9.84218 41.392 10.4742 41.792 11.0182C42.208 11.5462 42.768 11.9862 43.472 12.3382C44.192 12.6742 45.016 12.9302 45.944 13.1062C46.888 13.2822 47.888 13.3702 48.944 13.3702C50 13.3702 51 13.2822 51.944 13.1062C52.888 12.9302 53.712 12.6742 54.416 12.3382C55.136 11.9862 55.7039 11.5462 56.1199 11.0182C56.5359 10.4742 56.7439 9.84218 56.7439 9.12218C56.7439 8.40218 56.5359 7.77818 56.1199 7.25018C55.7039 6.70618 55.136 6.26618 54.416 5.93018C53.712 5.57818 52.888 5.31418 51.944 5.13818C51 4.96218 50 4.87418 48.944 4.87418C47.888 4.87418 46.888 4.96218 45.944 5.13818C45.016 5.31418 44.192 5.57818 43.472 5.93018C42.768 6.26618 42.208 6.70618 41.792 7.25018C41.392 7.77818 41.1919 8.40218 41.1919 9.12218Z" fill="#222222"/>
<path d="M82.7877 18.2422C81.6197 18.2582 80.4037 18.1862 79.1397 18.0262C77.8757 17.8822 76.6357 17.6502 75.4197 17.3302C74.2197 16.9942 73.0757 16.5782 71.9877 16.0822C70.9157 15.5862 69.9717 15.0022 69.1557 14.3302C68.3397 13.6422 67.6917 12.8662 67.2117 12.0022C66.7477 11.1382 66.5157 10.1782 66.5157 9.12218C66.5157 8.06618 66.7477 7.10618 67.2117 6.24218C67.6757 5.36218 68.3157 4.58618 69.1317 3.91418C69.9477 3.22618 70.8917 2.63418 71.9637 2.13818C73.0517 1.64218 74.1957 1.23418 75.3957 0.914181C76.6117 0.594182 77.8517 0.362182 79.1157 0.218182C80.3797 0.058182 81.6037 -0.013818 82.7877 0.00218177C83.9717 -0.013818 85.1957 0.058182 86.4597 0.218182C87.7397 0.362182 88.9797 0.594182 90.1797 0.914181C91.3957 1.23418 92.5397 1.64218 93.6117 2.13818C94.6997 2.63418 95.6517 3.22618 96.4677 3.91418C97.2837 4.58618 97.9237 5.36218 98.3877 6.24218C98.8677 7.10618 99.1077 8.06618 99.1077 9.12218C99.1077 10.1782 98.8677 11.1382 98.3877 12.0022C97.9237 12.8662 97.2757 13.6422 96.4437 14.3302C95.6277 15.0022 94.6757 15.5862 93.5877 16.0822C92.5157 16.5782 91.3717 16.9942 90.1557 17.3302C88.9557 17.6502 87.7157 17.8822 86.4357 18.0262C85.1717 18.1862 83.9557 18.2582 82.7877 18.2422ZM75.0357 9.12218C75.0357 9.84218 75.2357 10.4742 75.6357 11.0182C76.0517 11.5462 76.6117 11.9862 77.3157 12.3382C78.0357 12.6742 78.8597 12.9302 79.7877 13.1062C80.7317 13.2822 81.7317 13.3702 82.7877 13.3702C83.8437 13.3702 84.8437 13.2822 85.7877 13.1062C86.7317 12.9302 87.5557 12.6742 88.2597 12.3382C88.9797 11.9862 89.5477 11.5462 89.9637 11.0182C90.3797 10.4742 90.5877 9.84218 90.5877 9.12218C90.5877 8.40218 90.3797 7.77818 89.9637 7.25018C89.5477 6.70618 88.9797 6.26618 88.2597 5.93018C87.5557 5.57818 86.7317 5.31418 85.7877 5.13818C84.8437 4.96218 83.8437 4.87418 82.7877 4.87418C81.7317 4.87418 80.7317 4.96218 79.7877 5.13818C78.8597 5.31418 78.0357 5.57818 77.3157 5.93018C76.6117 6.26618 76.0517 6.70618 75.6357 7.25018C75.2357 7.77818 75.0357 8.40218 75.0357 9.12218Z" fill="#222222"/>
<path d="M101.531 17.5222V0.722181H108.731V8.01818L118.523 0.722181H128.411L119.411 7.41818L132.971 17.5222H123.083L114.467 11.1142L108.731 15.3862V17.5222H101.531Z" fill="#222222"/>
<path d="M140.887 12.7222H162.007V17.5222H133.687V0.722181H160.807V5.52218H140.887V6.72218H157.447V11.5222H140.887V12.7222Z" fill="#222222"/>
<path d="M171.848 11.5222V17.5222H164.648V0.722181H189.704C191.032 0.722181 192.136 0.994181 193.016 1.53818C193.912 2.06618 194.584 2.73018 195.032 3.53018C195.48 4.33018 195.704 5.19418 195.704 6.12218C195.704 7.05018 195.48 7.91418 195.032 8.71418C194.584 9.51418 193.912 10.1862 193.016 10.7302C192.136 11.2582 191.032 11.5222 189.704 11.5222H189.392L197.432 17.5222H187.544L179.504 11.5222H171.848ZM188.72 6.72218C188.912 6.72218 189.056 6.65818 189.152 6.53018C189.248 6.40218 189.296 6.26618 189.296 6.12218C189.296 5.97818 189.248 5.84218 189.152 5.71418C189.056 5.58618 188.912 5.52218 188.72 5.52218H171.848V6.72218H188.72Z" fill="#222222"/>
<path d="M220.147 5.52218H206.923C206.507 5.52218 206.299 5.72218 206.299 6.12218C206.299 6.52218 206.499 6.72218 206.899 6.72218H216.475C218.427 6.72218 220.203 6.82618 221.803 7.03418C223.419 7.22618 224.803 7.54618 225.955 7.99418C227.107 8.42618 227.995 8.98618 228.619 9.67418C229.259 10.3622 229.579 11.1942 229.579 12.1702C229.579 12.8262 229.371 13.4262 228.955 13.9702C228.539 14.5142 227.955 15.0102 227.203 15.4582C226.467 15.8902 225.595 16.2742 224.587 16.6102C223.579 16.9462 222.483 17.2262 221.299 17.4502C220.115 17.6582 218.867 17.8182 217.555 17.9302C216.243 18.0422 214.923 18.0982 213.595 18.0982C212.235 18.0982 210.883 18.0422 209.539 17.9302C208.211 17.8182 206.939 17.6502 205.723 17.4262C204.507 17.1862 203.379 16.8982 202.339 16.5622C201.299 16.2102 200.395 15.8102 199.627 15.3622C198.875 14.8982 198.283 14.3862 197.851 13.8262C197.435 13.2502 197.227 12.6182 197.227 11.9302H204.907C204.907 12.0742 204.955 12.2022 205.051 12.3142C205.163 12.4102 205.299 12.4902 205.459 12.5542C205.619 12.6022 205.787 12.6422 205.963 12.6742C206.155 12.7062 206.323 12.7222 206.467 12.7222H220.483C220.883 12.7222 221.083 12.5222 221.083 12.1222C221.083 11.7222 220.875 11.5222 220.459 11.5222H207.547C207.019 11.5062 206.411 11.4662 205.723 11.4022C205.035 11.3222 204.331 11.2102 203.611 11.0662C202.891 10.9222 202.179 10.7302 201.475 10.4902C200.787 10.2502 200.171 9.94618 199.627 9.57818C199.083 9.21018 198.643 8.77818 198.307 8.28218C197.971 7.78618 197.803 7.20218 197.803 6.53018C197.803 5.45818 198.251 4.52218 199.147 3.72218C200.059 2.92218 201.259 2.25818 202.747 1.73018C204.235 1.18618 205.923 0.786182 207.811 0.530182C209.715 0.258182 211.659 0.122182 213.643 0.122182C214.955 0.122182 216.251 0.186182 217.531 0.314182C218.827 0.426182 220.059 0.602181 221.227 0.842181C222.395 1.06618 223.475 1.35418 224.467 1.70618C225.459 2.04218 226.315 2.44218 227.035 2.90618C227.771 3.37018 228.347 3.89018 228.763 4.46618C229.179 5.02618 229.387 5.65018 229.387 6.33818H221.707C221.707 6.19418 221.651 6.07418 221.539 5.97818C221.443 5.86618 221.315 5.77818 221.155 5.71418C220.995 5.65018 220.819 5.60218 220.627 5.57018C220.451 5.53818 220.291 5.52218 220.147 5.52218Z" fill="#222222"/>
</svg>
